<svg width="104" height="74" viewBox="0 0 104 74" fill="none" xmlns="http://www.w3.org/2000/svg">
<g clip-path="url(#clip0)">
<path d="M44.5581 0.0251353C44.4918 0.0335175 44.2389 0.0628553 43.9984 0.088002C43.1319 0.180207 42.4561 0.410718 41.8135 0.825638C41.5357 1.00586 41.1792 1.32857 41.1792 1.40401C41.1792 1.50041 41.5357 1.78959 42.0001 2.06621C42.9122 2.61524 44.1145 3.17266 45.093 3.49957C46.0507 3.82229 46.6809 4.15338 47.9578 5.00418C49.6825 6.15255 51.5026 7.71164 52.1659 8.60016C53.3724 10.2179 56.0009 15.3269 58.8077 21.5214C61.884 28.2984 65.0598 36.0059 67.8666 43.5038C68.617 45.5113 68.9611 46.3747 69.355 47.2464C69.8774 48.399 70.3293 49.036 70.6278 49.036C70.8765 49.036 71.0258 48.8097 71.2207 48.1349C71.6974 46.4711 76.9421 33.2774 80.947 23.6588C81.9172 21.3286 84.9313 14.1199 85.4868 12.808C86.3036 10.8675 87.0333 9.31265 87.1452 9.27493C87.2033 9.25397 87.2281 9.48867 87.282 10.4149C87.4188 12.896 87.5101 21.7477 87.4727 29.0235C87.4271 38.0972 87.3359 42.0914 87.1328 43.9145C86.9172 45.8508 86.4694 46.2154 83.5092 46.8315C81.4653 47.259 81.1709 47.3428 80.8392 47.5733C80.5822 47.7494 80.52 47.8961 80.4329 48.5331C80.3873 48.86 80.3542 49.1282 80.3625 49.1366C80.3707 49.145 82.5432 49.124 85.1883 49.0947C92.8086 49.0067 99.384 48.9774 100.238 49.0277C100.922 49.0696 100.988 49.0779 101.042 49.1576C101.092 49.2372 101.138 49.2456 101.548 49.2456H102V48.8474C102 48.4702 101.996 48.4451 101.909 48.4074C101.855 48.3864 101.731 48.311 101.627 48.2439C101.523 48.1727 101.411 48.114 101.378 48.114C101.345 48.114 101.187 48.0469 101.03 47.9631C100.702 47.7955 99.7406 47.544 97.9164 47.15C94.7696 46.4669 94.0275 46.0562 93.7746 44.8449C93.4843 43.4493 93.4304 40.8047 93.3309 22.7997C93.2563 8.97317 93.3434 5.91784 93.8326 5.14249C93.928 4.98742 94.0109 4.92455 94.2555 4.80301C94.7986 4.53897 95.8641 4.30007 97.0664 4.17015C100.698 3.77618 101.411 3.5792 101.59 2.92539C101.652 2.69068 101.577 2.30091 101.428 2.05363C101.154 1.60099 100.433 1.38725 98.787 1.25732C97.1328 1.13159 91.8923 1.10644 90.5573 1.21541C88.6626 1.37467 87.8998 1.7854 87.2862 2.97568C87.0789 3.37384 86.9628 3.67141 86.4114 5.19697C83.3517 13.6546 76.2829 30.8047 73.5175 36.4836C72.9246 37.7033 72.6759 38.1391 72.5888 38.1391C72.5142 38.1391 72.1079 37.3722 71.4445 35.9681C70.7895 34.5851 70.7853 34.5767 67.3069 26.7603C61.486 13.684 59.6369 9.64374 58.219 6.91114C56.7638 4.10728 55.8848 2.88348 54.8442 2.20032C54.3467 1.87342 53.1775 1.31181 52.3525 0.997474C51.3367 0.616082 49.7903 0.293367 48.0615 0.100575C47.4976 0.0377086 44.8774 -0.0167759 44.5581 0.0251353Z" fill="white"/>
<path d="M6.00083 1.80636C4.54146 1.81894 3.28109 1.8357 3.19818 1.83989C2.99502 1.84408 2.82919 2.00335 2.82919 2.18356C2.82919 2.56076 3.79934 3.10561 5.19237 3.51634C5.43284 3.5834 6.07546 3.74685 6.62272 3.87677C7.16584 4.0067 7.75456 4.15758 7.92869 4.21625C9.25954 4.66889 9.66998 5.49035 9.87313 8.13076C9.98922 9.62279 10.0348 12.0159 10.126 21.3747C10.238 33.0972 9.87313 44.3085 9.31343 46.1819C9.26368 46.3621 9.1932 46.4669 8.99005 46.6722C8.38889 47.2758 7.24876 47.6488 3.78275 48.3655C2.88308 48.5499 2.11194 48.7133 2.07463 48.7259C2.00829 48.7469 2 48.8139 2 49.3797V50.0084L3.04892 49.9707C4.10199 49.9371 4.73217 49.9371 13.7952 49.9539C20.2836 49.9707 31.8922 49.8449 32.825 49.7485C33.0323 49.7276 33.505 49.6815 33.8823 49.6438C34.5954 49.5767 37.3234 49.2037 37.8624 49.1031C39.0274 48.881 42.4602 47.72 43.4801 47.2045C45.325 46.2615 48.704 43.114 50.8516 40.3227C51.8673 39.0067 52.2653 38.3277 52.9826 36.6722C55.7023 30.4275 55.9842 23.6253 53.7786 17.6111C52.2819 13.5331 49.1103 9.30846 45.5531 6.64291C44.2595 5.67476 43.2811 5.11315 41.2828 4.19949C37.8168 2.61525 35.7604 2.19614 30.3997 1.96982C26.5481 1.81055 13.7745 1.72254 6.00083 1.80636ZM24.5954 3.98155C26.5357 4.0989 28.534 4.35456 30.1302 4.69823C33.0489 5.31852 36.1376 6.64291 38.6998 8.36546C41.5978 10.3143 43.9403 12.8374 45.1965 15.373C45.5821 16.1484 45.806 16.7058 46.1335 17.7075C46.8425 19.8617 47.2819 22.15 47.51 24.8952C47.597 25.9681 47.6095 28.5918 47.5307 29.5264C47.2944 32.2506 46.8342 34.0151 45.8018 36.1484C44.7819 38.2607 43.4801 40.0545 41.6517 41.8734C40.238 43.2774 38.8284 44.3671 37.1575 45.3479C35.2794 46.4501 32.9826 47.3386 31.2123 47.6488C29.7819 47.9002 28.2645 48.005 26.0879 48.0092C24.2886 48.0092 23.6791 47.9757 22.8167 47.8374C20.8557 47.5272 18.5381 46.1023 17.6095 44.6396C16.7886 43.3445 16.631 41.1484 16.5108 29.3378C16.3781 16.316 16.3781 8.61693 16.5108 6.601C16.5647 5.80888 16.6517 5.17602 16.7347 4.97065C16.9668 4.40485 18.5755 4.03185 21.2371 3.92288C21.7803 3.90192 23.8325 3.93964 24.5954 3.98155Z" fill="white"/>
</g>
<path d="M0.644531 70L0.666016 69.2266C0.823568 69.1908 1.08496 69.137 1.4502 69.0654C1.81543 68.9938 2.18066 68.9115 2.5459 68.8184L2.75 68.6895C2.82161 68.403 2.85742 68.1094 2.85742 67.8086V67.7441L2.81445 65.2627L2.8252 64.2207L2.78223 62.6846L2.80371 60.8584L2.6748 57.2598C2.56738 57.1595 2.22005 57.0592 1.63281 56.959C1.48958 56.9303 1.2819 56.873 1.00977 56.7871L0.751953 56.7227V55.9707L2.16992 56.0244C3.0293 56.1104 4.29329 56.1533 5.96191 56.1533C6.7998 56.1533 7.6735 56.1318 8.58301 56.0889L8.78711 56.0781L9.31348 56.0889L9.52832 56.0781H9.97949L11.9023 56.0137C11.9883 56.0137 12.0993 56.0065 12.2354 55.9922C12.3786 55.9779 12.5111 55.9671 12.6328 55.96C12.6758 56.1748 12.7044 56.3896 12.7188 56.6045L12.8799 58.624C12.8799 58.8389 12.8584 59.0036 12.8154 59.1182C12.5576 59.154 12.3678 59.1719 12.2461 59.1719C12.1029 59.1719 11.9883 59.1396 11.9023 59.0752C11.8594 59.0322 11.777 58.8711 11.6553 58.5918C11.3545 57.8685 11.0967 57.4424 10.8818 57.3135C10.6742 57.1774 10.0869 57.1094 9.12012 57.1094L7.6377 57.1523C7.00749 57.1595 6.50977 57.1953 6.14453 57.2598C6.06576 57.2741 5.95117 57.3099 5.80078 57.3672C5.70768 57.5319 5.66113 57.7432 5.66113 58.001L5.69336 59.2793L5.66113 60.7402C5.66113 61.485 5.6862 61.9434 5.73633 62.1152C5.80078 62.1582 5.85449 62.1833 5.89746 62.1904L6.66016 62.2012H7.94922C8.23568 62.2083 8.67611 62.1761 9.27051 62.1045C9.67871 62.0544 9.92936 61.9971 10.0225 61.9326C10.1943 61.818 10.3161 61.6748 10.3877 61.5029C10.4665 61.3239 10.5238 60.8942 10.5596 60.2139C10.5954 60.2139 10.6921 60.2103 10.8496 60.2031C10.9499 60.196 11.0179 60.1924 11.0537 60.1924C11.1325 60.1924 11.29 60.2031 11.5264 60.2246L11.4619 61.9434C11.4548 62.3086 11.4404 62.6237 11.4189 62.8887L11.4404 63.125C11.4476 63.1966 11.4512 63.7266 11.4512 64.7148C11.4512 64.7793 11.4476 64.8867 11.4404 65.0371C11.3044 65.0658 11.1969 65.0801 11.1182 65.0801C11.0609 65.0801 10.9212 65.0586 10.6992 65.0156C10.6348 64.8796 10.5632 64.6826 10.4844 64.4248C10.3197 63.859 10.1406 63.5296 9.94727 63.4365C9.60352 63.2646 8.52214 63.1787 6.70312 63.1787C6.43815 63.1787 6.13021 63.2038 5.7793 63.2539C5.72917 63.5547 5.7041 63.902 5.7041 64.2959L5.75781 67.5186C5.76497 68.113 5.82943 68.4782 5.95117 68.6143C6.02995 68.7002 6.2985 68.7861 6.75684 68.8721L6.97168 68.8936C7.29395 68.915 7.57682 68.9616 7.82031 69.0332L8.11035 69.0977C8.139 69.2839 8.15332 69.4271 8.15332 69.5273C8.15332 69.6348 8.14258 69.7708 8.12109 69.9355L7.91699 69.9248L7.58398 69.9355L6.05859 69.8604C5.88672 69.8532 5.08464 69.8496 3.65234 69.8496C3.25846 69.8496 2.88249 69.8711 2.52441 69.9141C1.95866 69.9785 1.65072 70.0107 1.60059 70.0107C1.13509 70.0107 0.816406 70.0072 0.644531 70ZM14.416 69.9355V69.1621C14.5592 69.1191 14.7956 69.0583 15.125 68.9795C15.5905 68.8649 15.9378 68.7467 16.167 68.625C16.2959 68.403 16.3604 68.0951 16.3604 67.7012L16.3496 66.4336L16.3711 63.9844L16.3604 63.4043C16.4105 61.9863 16.4355 61.2559 16.4355 61.2129L16.4141 59.7842L16.4463 59.2041L16.3926 57.9795L16.3818 57.5176C16.3747 57.446 16.3496 57.3314 16.3066 57.1738C16.013 57.0378 15.5368 56.9518 14.8779 56.916C14.7204 56.9089 14.5951 56.8981 14.502 56.8838L14.4697 55.9385L17.542 56.0674C17.9215 56.0817 18.1579 56.0889 18.251 56.0889C18.6735 56.0889 19.3503 56.0602 20.2812 56.0029C20.804 55.9671 21.1335 55.9456 21.2695 55.9385C21.2767 56.0745 21.2803 56.1891 21.2803 56.2822C21.2803 56.404 21.2731 56.5615 21.2588 56.7549C20.9723 56.8551 20.6429 56.9518 20.2705 57.0449C19.9053 57.1309 19.6045 57.2204 19.3682 57.3135C19.3252 57.4997 19.3037 57.7682 19.3037 58.1191C19.3037 58.4271 19.3145 58.6777 19.3359 58.8711C19.3145 60.0814 19.3037 61.0124 19.3037 61.6641L19.3145 64.5L19.2822 65.9395L19.3037 68.0879L19.293 68.4961C19.293 68.5534 19.3073 68.6357 19.3359 68.7432C19.7728 68.8363 20.1702 68.9007 20.5283 68.9365C20.5928 68.9437 20.8112 68.9723 21.1836 69.0225C21.2122 69.2373 21.2266 69.4163 21.2266 69.5596C21.2266 69.6383 21.223 69.7601 21.2158 69.9248C21.1227 69.9248 21.0511 69.9284 21.001 69.9355C20.7718 69.9499 20.6393 69.957 20.6035 69.957C20.5534 69.957 20.4603 69.9463 20.3242 69.9248C20.224 69.9105 19.7477 69.8604 18.8955 69.7744L16.9941 69.7529C16.6146 69.7529 16.0632 69.7887 15.3398 69.8604C14.8672 69.9033 14.5592 69.9284 14.416 69.9355ZM22.376 56.873L22.333 56.1211H23.2461L23.5576 56.1104C23.9873 56.0889 24.2845 56.0781 24.4492 56.0781C24.5352 56.0781 24.7858 56.0853 25.2012 56.0996C25.2943 56.1068 25.373 56.1104 25.4375 56.1104C25.502 56.1104 25.7275 56.1032 26.1143 56.0889C26.501 56.0745 26.7194 56.0674 26.7695 56.0674C26.8483 56.0674 26.9593 56.071 27.1025 56.0781C28.2054 57.0807 29.1042 57.9437 29.7988 58.667C30.4935 59.3903 33.0286 61.9219 37.4043 66.2617V65.9932L37.3613 64.7471C37.3398 64.0166 37.3112 63.4401 37.2754 63.0176C37.2396 62.5879 37.2181 62.0794 37.2109 61.4922C37.2038 60.8978 37.1787 60.3607 37.1357 59.8809C37.0498 58.9427 37.0068 58.402 37.0068 58.2588C36.9997 57.7933 36.9495 57.5104 36.8564 57.4102C36.7061 57.2526 36.3623 57.1344 35.8252 57.0557C35.4313 56.9912 35.1377 56.9089 34.9443 56.8086L34.9551 56.1748L35.2344 56.1426L37.3506 56.0781L39.7139 56.0137C39.8714 56.0065 40.0218 56.0029 40.165 56.0029L40.1758 56.7012C40.0111 56.7871 39.8428 56.8516 39.6709 56.8945C39.2126 57.002 38.9476 57.0771 38.876 57.1201C38.5107 57.3278 38.3138 57.4531 38.2852 57.4961C38.2207 57.582 38.1885 57.7145 38.1885 57.8936C38.1885 57.9365 38.1956 58.0869 38.21 58.3447C38.2171 58.4736 38.2207 58.7744 38.2207 59.2471C38.2279 60.2855 38.2565 61.1055 38.3066 61.707C38.321 61.9004 38.3317 62.1188 38.3389 62.3623L38.457 66.1328C38.4642 66.3978 38.4678 66.584 38.4678 66.6914V68.0127L38.5 68.5713L38.4678 69.1514C38.4964 69.445 38.5107 69.6204 38.5107 69.6777V70.2471L37.2754 70.29L35.9971 68.9688L33.3867 66.3799L31.5605 64.5537L30.2178 63.1787C29.3441 62.3193 28.5492 61.5638 27.833 60.9121L26.082 59.333L26.1787 63.3291C26.1859 63.5726 26.1895 63.8232 26.1895 64.0811L26.1787 64.8438L26.2432 66.251C26.2646 66.8382 26.304 67.4756 26.3613 68.1631C26.3757 68.3493 26.3936 68.4818 26.415 68.5605C26.4365 68.6322 26.4795 68.7396 26.5439 68.8828C26.8232 68.9831 27.432 69.0583 28.3701 69.1084C28.4346 69.1227 28.5277 69.1478 28.6494 69.1836L28.6924 70.0537L28.2734 70.0645C28.0443 70.0645 27.321 70.0107 26.1035 69.9033C24.9648 69.9176 24.2057 69.9391 23.8262 69.9678C23.4466 69.9964 23.2389 70.0107 23.2031 70.0107C23.1172 70.0107 22.999 69.9964 22.8486 69.9678C22.8343 69.8031 22.8271 69.6598 22.8271 69.5381C22.8271 69.4593 22.8307 69.3304 22.8379 69.1514C23.0384 69.1156 23.2031 69.0977 23.332 69.0977C23.375 69.0977 23.5146 69.1048 23.751 69.1191C24.3525 69.1191 24.707 69.0762 24.8145 68.9902C24.929 68.8971 24.9935 68.6536 25.0078 68.2598C25.0579 67.1211 25.083 66.4264 25.083 66.1758V65.585L25.1045 62.0938L25.0723 59.9131C25.0651 59.0824 25.0114 58.5059 24.9111 58.1836C24.8682 58.0189 24.7858 57.8757 24.6641 57.7539C24.4134 57.4961 24.1341 57.3027 23.8262 57.1738C23.64 57.0951 23.1566 56.9948 22.376 56.873ZM40.1113 69.9248L40.1328 69.1943C40.2689 69.1514 40.5088 69.0977 40.8525 69.0332C41.404 68.9258 41.737 68.8291 41.8516 68.7432C41.9733 68.6572 42.1201 68.4495 42.292 68.1201L44.4619 62.4375L47.0078 55.7559C47.2441 55.763 47.4697 55.7666 47.6846 55.7666H48.168L48.2646 55.96L50.1338 60.3857C50.5563 61.3239 50.9359 62.237 51.2725 63.125C51.609 64.0059 51.8991 64.7256 52.1426 65.2842C52.2858 65.6208 52.4827 66.1257 52.7334 66.7988C52.8623 67.1641 53.0592 67.6224 53.3242 68.1738C53.4674 68.4746 53.5749 68.6501 53.6465 68.7002C53.7754 68.8076 53.9831 68.8792 54.2695 68.915C54.5632 68.9508 54.8783 69.0332 55.2148 69.1621C55.2507 69.3984 55.2686 69.5739 55.2686 69.6885C55.2686 69.7386 55.265 69.8174 55.2578 69.9248C54.7279 69.9248 54.1442 69.8997 53.5068 69.8496C52.8695 69.7995 52.2965 69.7744 51.7881 69.7744C51.2223 69.7744 50.8141 69.7816 50.5635 69.7959L48.7373 69.8926L48.2109 69.9141C48.2109 69.6634 48.2217 69.4235 48.2432 69.1943L49.4355 68.9365C49.7936 68.8434 50.0013 68.7718 50.0586 68.7217C50.1302 68.6501 50.166 68.5677 50.166 68.4746C50.166 68.3815 50.1481 68.2848 50.1123 68.1846L49.6826 67.1318L48.834 65.0264L44.7305 65.0156C44.5801 65.3594 44.2686 66.2008 43.7959 67.54C43.6598 67.9196 43.5918 68.1774 43.5918 68.3135C43.5918 68.4997 43.6419 68.6322 43.7422 68.7109C43.9069 68.847 44.222 68.9437 44.6875 69.001C44.752 69.0153 45.0062 69.0547 45.4502 69.1191C45.4574 69.377 45.4609 69.556 45.4609 69.6562C45.4609 69.735 45.4538 69.8174 45.4395 69.9033C44.9954 69.9033 43.9355 69.8424 42.2598 69.7207L41.8193 69.7959C41.2894 69.8818 40.7845 69.9248 40.3047 69.9248H40.1113ZM45.1602 63.8877C46.8359 63.9092 47.8242 63.9199 48.125 63.9199L48.3936 63.9092C48.1787 63.2718 47.8994 62.5306 47.5557 61.6855C47.2119 60.8333 46.9326 60.1852 46.7178 59.7412L45.1602 63.8877ZM54.9463 56.873L54.9033 56.1211H55.8164L56.1279 56.1104C56.5576 56.0889 56.8548 56.0781 57.0195 56.0781C57.1055 56.0781 57.3561 56.0853 57.7715 56.0996C57.8646 56.1068 57.9434 56.1104 58.0078 56.1104C58.0723 56.1104 58.2979 56.1032 58.6846 56.0889C59.0713 56.0745 59.2897 56.0674 59.3398 56.0674C59.4186 56.0674 59.5296 56.071 59.6729 56.0781C60.7757 57.0807 61.6745 57.9437 62.3691 58.667C63.0638 59.3903 65.599 61.9219 69.9746 66.2617V65.9932L69.9316 64.7471C69.9102 64.0166 69.8815 63.4401 69.8457 63.0176C69.8099 62.5879 69.7884 62.0794 69.7812 61.4922C69.7741 60.8978 69.749 60.3607 69.7061 59.8809C69.6201 58.9427 69.5771 58.402 69.5771 58.2588C69.57 57.7933 69.5199 57.5104 69.4268 57.4102C69.2764 57.2526 68.9326 57.1344 68.3955 57.0557C68.0016 56.9912 67.708 56.9089 67.5146 56.8086L67.5254 56.1748L67.8047 56.1426L69.9209 56.0781L72.2842 56.0137C72.4417 56.0065 72.5921 56.0029 72.7354 56.0029L72.7461 56.7012C72.5814 56.7871 72.4131 56.8516 72.2412 56.8945C71.7829 57.002 71.5179 57.0771 71.4463 57.1201C71.0811 57.3278 70.8841 57.4531 70.8555 57.4961C70.791 57.582 70.7588 57.7145 70.7588 57.8936C70.7588 57.9365 70.766 58.0869 70.7803 58.3447C70.7874 58.4736 70.791 58.7744 70.791 59.2471C70.7982 60.2855 70.8268 61.1055 70.877 61.707C70.8913 61.9004 70.902 62.1188 70.9092 62.3623L71.0273 66.1328C71.0345 66.3978 71.0381 66.584 71.0381 66.6914V68.0127L71.0703 68.5713L71.0381 69.1514C71.0667 69.445 71.0811 69.6204 71.0811 69.6777V70.2471L69.8457 70.29L68.5674 68.9688L65.957 66.3799L64.1309 64.5537L62.7881 63.1787C61.9144 62.3193 61.1195 61.5638 60.4033 60.9121L58.6523 59.333L58.749 63.3291C58.7562 63.5726 58.7598 63.8232 58.7598 64.0811L58.749 64.8438L58.8135 66.251C58.835 66.8382 58.8743 67.4756 58.9316 68.1631C58.946 68.3493 58.9639 68.4818 58.9854 68.5605C59.0068 68.6322 59.0498 68.7396 59.1143 68.8828C59.3936 68.9831 60.0023 69.0583 60.9404 69.1084C61.0049 69.1227 61.098 69.1478 61.2197 69.1836L61.2627 70.0537L60.8438 70.0645C60.6146 70.0645 59.8913 70.0107 58.6738 69.9033C57.5352 69.9176 56.776 69.9391 56.3965 69.9678C56.0169 69.9964 55.8092 70.0107 55.7734 70.0107C55.6875 70.0107 55.5693 69.9964 55.4189 69.9678C55.4046 69.8031 55.3975 69.6598 55.3975 69.5381C55.3975 69.4593 55.401 69.3304 55.4082 69.1514C55.6087 69.1156 55.7734 69.0977 55.9023 69.0977C55.9453 69.0977 56.085 69.1048 56.3213 69.1191C56.9229 69.1191 57.2773 69.0762 57.3848 68.9902C57.4993 68.8971 57.5638 68.6536 57.5781 68.2598C57.6283 67.1211 57.6533 66.4264 57.6533 66.1758V65.585L57.6748 62.0938L57.6426 59.9131C57.6354 59.0824 57.5817 58.5059 57.4814 58.1836C57.4385 58.0189 57.3561 57.8757 57.2344 57.7539C56.9837 57.4961 56.7044 57.3027 56.3965 57.1738C56.2103 57.0951 55.7269 56.9948 54.9463 56.873ZM86.5928 56.25C86.6859 56.4648 86.8757 57.0771 87.1621 58.0869C87.291 58.5452 87.359 59.0322 87.3662 59.5479H86.3887C85.7012 58.5739 84.9922 57.8757 84.2617 57.4531C83.5312 57.0234 82.7148 56.8086 81.8125 56.8086C80.7025 56.8086 79.8073 57.2419 79.127 58.1084C78.2031 59.2829 77.7412 60.9193 77.7412 63.0176C77.7412 64.235 77.82 65.1016 77.9775 65.6172C78.2354 66.4551 78.5612 67.139 78.9551 67.6689C79.2559 68.07 79.6497 68.3887 80.1367 68.625C80.7669 68.9473 81.4401 69.1084 82.1562 69.1084C82.944 69.1084 83.7031 68.8649 84.4336 68.3779C85.1712 67.8838 85.8766 67.1497 86.5498 66.1758C86.8148 66.1257 87.1621 66.097 87.5918 66.0898C87.5632 66.362 87.5166 66.6449 87.4521 66.9385C87.4307 67.0531 87.3483 67.5078 87.2051 68.3027L87.1084 68.625L86.958 69.1299C86.5212 69.4665 85.9053 69.7207 85.1104 69.8926C84.3226 70.0573 83.3522 70.1396 82.1992 70.1396C81.3184 70.1396 80.484 70.0573 79.6963 69.8926C78.9157 69.7279 78.2461 69.4665 77.6875 69.1084C76.8711 68.5928 76.2301 68.0342 75.7646 67.4326C75.2992 66.8311 74.9518 66.1758 74.7227 65.4668C74.5007 64.7578 74.3896 63.9629 74.3896 63.082C74.3896 60.9479 75.0915 59.1862 76.4951 57.7969C77.9059 56.4076 79.7035 55.7129 81.8877 55.7129C82.7757 55.7129 83.61 55.7594 84.3906 55.8525C85.1784 55.9385 85.9124 56.071 86.5928 56.25ZM88.7412 56.0244C89.1494 56.0459 89.5039 56.0781 89.8047 56.1211C90.3704 56.1999 91.0257 56.2393 91.7705 56.2393C92.0283 56.2393 92.6908 56.2178 93.7578 56.1748C95.3548 56.1104 96.7979 56.0781 98.0869 56.0781L100.031 56.0566C100.468 56.0566 101.113 56.1104 101.965 56.2178C102.094 56.361 102.158 56.5544 102.158 56.7979V59.0107L102.18 59.4512C102.18 59.4941 102.176 59.5586 102.169 59.6445L101.729 59.666C101.671 59.666 101.549 59.6589 101.363 59.6445C101.299 59.5013 101.213 59.29 101.105 59.0107L100.676 58.248C100.511 57.9258 100.282 57.5964 99.9883 57.2598C99.8092 57.2096 99.5801 57.181 99.3008 57.1738C99.2292 57.1667 99.0107 57.1488 98.6455 57.1201C97.9795 57.0628 97.2633 57.0342 96.4971 57.0342C95.6234 57.0342 94.8428 57.0485 94.1553 57.0771C94.1338 57.2562 94.123 57.9616 94.123 59.1934L94.1445 60.998V62.3516C94.3236 62.373 94.4775 62.3838 94.6064 62.3838C95.8883 62.3838 96.8014 62.3587 97.3457 62.3086C97.89 62.2585 98.2266 62.1904 98.3555 62.1045C98.4844 62.0114 98.599 61.8538 98.6992 61.6318C98.7637 61.4743 98.889 60.9479 99.0752 60.0527L99.2148 60.042L99.8379 60.0527C99.8665 60.6901 99.8809 61.1735 99.8809 61.5029C99.8809 62.2549 99.8737 62.7383 99.8594 62.9531C99.8522 63.168 99.8486 63.3363 99.8486 63.458C99.8486 63.6514 99.8594 63.9629 99.8809 64.3926C99.9023 64.8151 99.9131 65.1302 99.9131 65.3379V65.5742H99.1504C99.1217 65.4596 99.068 65.2233 98.9893 64.8652C98.846 64.1992 98.7171 63.7839 98.6025 63.6191C98.5166 63.4902 98.3734 63.3936 98.1729 63.3291C98.0296 63.279 97.4997 63.2539 96.583 63.2539C95.5016 63.2539 94.6888 63.2826 94.1445 63.3398C94.1374 63.526 94.1338 63.6478 94.1338 63.7051C94.1338 64.5573 94.1481 65.2663 94.1768 65.832L94.1553 68.1523C94.1553 68.4245 94.252 68.6107 94.4453 68.7109C94.7389 68.8613 95.6377 68.9365 97.1416 68.9365C98.137 68.9365 98.9821 68.8613 99.6768 68.7109C100.157 68.6035 100.579 68.3636 100.944 67.9912C101.431 67.5114 101.836 66.8382 102.158 65.9717C102.38 65.9502 102.563 65.9395 102.706 65.9395C102.785 65.9395 102.903 65.943 103.061 65.9502C103.039 66.1292 103.021 66.2796 103.007 66.4014L102.942 66.7236L102.545 68.7539L102.352 69.9785C101.886 70 101.517 70.0107 101.245 70.0107C100.844 70.0107 99.7734 69.9749 98.0332 69.9033C96.8086 69.8532 95.3333 69.8281 93.6074 69.8281C92.748 69.8281 91.6917 69.8639 90.4385 69.9355H89.9873L88.6875 69.9785V69.2373C88.8236 69.2015 89.0957 69.1621 89.5039 69.1191C90.2487 69.0332 90.7643 68.9186 91.0508 68.7754C91.1296 68.5677 91.1689 68.3063 91.1689 67.9912C91.1689 67.8695 91.1654 67.6618 91.1582 67.3682L91.1689 67.0352L91.1367 62.9854L91.1475 61.7715L91.0938 60.0527L91.1045 58.8389L91.0078 57.5068C91.0078 57.471 91.0007 57.3994 90.9863 57.292C90.9147 57.2132 90.8073 57.1631 90.6641 57.1416C90.5853 57.1273 90.4779 57.1058 90.3418 57.0771C89.9336 56.9912 89.5397 56.9411 89.1602 56.9268C89.0241 56.9196 88.8665 56.9053 88.6875 56.8838L88.7412 56.0244Z" fill="white"/>
<defs>
<clipPath id="clip0">
<rect width="100" height="50" fill="white" transform="translate(2)"/>
</clipPath>
</defs>
</svg>
